<svg width="80" height="88" viewBox="0 0 80 88" fill="none" xmlns="http://www.w3.org/2000/svg">
<path d="M39.1534 87.6865L1.98415 64.5918C0.67195 63.7753 0.67195 61.8702 1.98415 61.0537L39.1534 37.959C39.8241 37.541 40.6795 37.541 41.3501 37.959L78.5194 61.0537C79.8316 61.8702 79.8316 63.7753 78.5194 64.5918L41.3501 87.6865C40.6795 88.1044 39.8241 88.1044 39.1534 87.6865Z" fill="#33B533"/>
<path d="M64.8008 35.4124L41.7936 49.7008C40.8896 50.2645 39.4122 50.2645 38.5082 49.7008L15.501 35.4124L0.67797 44.6269C-0.22599 45.1907 -0.22599 46.1043 0.67797 46.6681L38.5082 70.1711C39.4122 70.7348 40.8896 70.7348 41.7936 70.1711L79.6238 46.6681C80.5277 46.1043 80.5277 45.1907 79.6238 44.6269L64.8008 35.4124Z" fill="#AC7EF4"/>
<path d="M39.1534 50.041L1.98415 26.9463C0.67195 26.1298 0.67195 24.2247 1.98415 23.4082L39.1534 0.31347C39.8241 -0.10449 40.6795 -0.10449 41.3501 0.31347L78.5194 23.4082C79.8316 24.2247 79.8316 26.1298 78.5194 26.9463L41.3501 50.041C40.6795 50.4589 39.8241 50.4589 39.1534 50.041Z" fill="#EF6C41"/>
<path d="M39.0072 49.7008C39.9112 50.2645 41.3886 50.2645 42.2926 49.7008L65.2998 35.4124L42.2926 21.124C41.3886 20.5602 39.9112 20.5602 39.0072 21.124L16 35.4124L39.0072 49.7008Z" fill="#EEB1CA"/>
</svg>
