<svg width="744" xmlns="http://www.w3.org/2000/svg" height="327" id="screenshot-823e08ad-8c6c-8035-8007-48367da36c77" viewBox="0 0 744 327" xmlns:xlink="http://www.w3.org/1999/xlink" fill="none" version="1.1"><g id="shape-823e08ad-8c6c-8035-8007-48367da36c77" rx="0" ry="0"><g id="shape-823e08ad-8c6c-8035-8007-4834ca232585" rx="0" ry="0"><g id="shape-823e08ad-8c6c-8035-8007-4834ca232587" width="425" height="88" rx="0" ry="0" style="fill: rgb(0, 0, 0);"><g id="shape-823e08ad-8c6c-8035-8007-4834ca232589" style="display: none;"><g class="fills" id="fills-823e08ad-8c6c-8035-8007-4834ca232589"><rect width="744" height="153.9293903674752" x="0" transform="matrix(1.000000, 0.000000, 0.000000, 1.000000, 0.000000, 0.000000)" style="fill: none;" ry="0" fill="none" rx="0" y="173.0706096325248"/></g></g><g id="shape-823e08ad-8c6c-8035-8007-4834ca23258a"><g class="fills" id="fills-823e08ad-8c6c-8035-8007-4834ca23258a"><path d="M68.541015625,326.451416015625L3.4736328125,286.054443359375C1.17578125,284.62646484375,1.17578125,281.29345703125,3.4736328125,279.865478515625L68.541015625,239.46826171875C69.7158203125,238.7373046875,71.21337890625,238.7373046875,72.38671875,239.46826171875L137.45458984375,279.865478515625C139.75244140625,281.29345703125,139.75244140625,284.62646484375,137.45458984375,286.054443359375L72.38671875,326.451416015625C71.21337890625,327.1826171875,69.7158203125,327.1826171875,68.541015625,326.451416015625Z" style="fill: rgb(51, 181, 51);"/></g></g><g id="shape-823e08ad-8c6c-8035-8007-4834ca23258b"><g class="fills" id="fills-823e08ad-8c6c-8035-8007-4834ca23258b"><path d="M113.439453125,235.013916015625L73.1630859375,260.00732421875C71.58056640625,260.9931640625,68.994140625,260.9931640625,67.412109375,260.00732421875L27.1357421875,235.013916015625L1.18701171875,251.132080078125C-0.3955078125,252.118408203125,-0.3955078125,253.71630859375,1.18701171875,254.7021484375L67.412109375,295.814208984375C68.994140625,296.800048828125,71.58056640625,296.800048828125,73.1630859375,295.814208984375L139.388671875,254.7021484375C140.970703125,253.71630859375,140.970703125,252.118408203125,139.388671875,251.132080078125L113.439453125,235.013916015625Z" style="fill: rgb(172, 126, 244);"/></g></g><g id="shape-823e08ad-8c6c-8035-8007-4834ca23258c"><g class="fills" id="fills-823e08ad-8c6c-8035-8007-4834ca23258c"><path d="M68.541015625,260.602294921875L3.4736328125,220.205322265625C1.17578125,218.777099609375,1.17578125,215.4443359375,3.4736328125,214.01611328125L68.541015625,173.619140625C69.7158203125,172.88818359375,71.21337890625,172.88818359375,72.38671875,173.619140625L137.45458984375,214.01611328125C139.75244140625,215.4443359375,139.75244140625,218.777099609375,137.45458984375,220.205322265625L72.38671875,260.602294921875C71.21337890625,261.333251953125,69.7158203125,261.333251953125,68.541015625,260.602294921875Z" style="fill: rgb(239, 108, 65);"/></g></g><g id="shape-823e08ad-8c6c-8035-8007-4834ca23258d"><g class="fills" id="fills-823e08ad-8c6c-8035-8007-4834ca23258d"><path d="M68.28515625,260.00732421875C69.8681640625,260.9931640625,72.455078125,260.9931640625,74.03662109375,260.00732421875L114.31298828125,235.013916015625L74.03662109375,210.0205078125C72.455078125,209.03466796875,69.8681640625,209.03466796875,68.28515625,210.0205078125L28.009765625,235.013916015625L68.28515625,260.00732421875Z" style="fill: rgb(238, 177, 202);"/></g></g><g id="shape-823e08ad-8c6c-8035-8007-4834ca23258e"><g class="fills" id="fills-823e08ad-8c6c-8035-8007-4834ca23258e"><path d="M222.4296875,293.80029296875L201.318359375,293.80029296875L201.318359375,213.529541015625C215.28759765625,208.87646484375,228.591796875,206.55029296875,241.05615234375,206.55029296875C250.19384765625,206.55029296875,257.51171875,208.544677734375,262.67578125,212.357177734375C272.8115234375,208.544677734375,282.7900390625,206.55029296875,292.6103515625,206.55029296875C304.40966796875,206.55029296875,312.89990234375,209.541259765625,318.046875,215.523681640625C323.1943359375,221.505859375,325.8544921875,231.966064453125,325.8544921875,246.764404296875L325.8544921875,293.78271484375L304.89990234375,293.78271484375L304.89990234375,248.09375C304.89990234375,239.120361328125,303.744140625,233.1376953125,301.41650390625,229.98974609375C299.24609375,226.8408203125,294.763671875,225.161865234375,288.28662109375,225.161865234375C282.8076171875,225.161865234375,277.1533203125,225.98388671875,271.65625,227.82080078125C273.4765625,231.983642578125,274.3173828125,238.281005859375,274.3173828125,246.764404296875L274.3173828125,293.78271484375L253.205078125,293.78271484375L253.205078125,248.09375C253.205078125,238.945556640625,252.20751953125,232.805908203125,250.0361328125,229.814697265625C248.041015625,226.666259765625,243.5595703125,225.161865234375,236.73193359375,225.161865234375C232.076171875,225.161865234375,227.26171875,225.98388671875,222.4296875,227.488037109375L222.4296875,293.78271484375L222.4296875,293.80029296875Z" style="fill: rgb(255, 255, 255);"/></g></g><g id="shape-823e08ad-8c6c-8035-8007-4834ca23258f"><g class="fills" id="fills-823e08ad-8c6c-8035-8007-4834ca23258f"><path d="M357.97802734375,197.0869140625C348.6650390625,197.0869140625,346.00341796875,194.7607421875,346.00341796875,185.27978515625C346.00341796875,176.81396484375,348.6650390625,174.81982421875,357.97802734375,174.81982421875C367.291015625,174.81982421875,369.9521484375,176.81396484375,369.9521484375,185.27978515625C369.9521484375,194.7607421875,367.291015625,197.0869140625,357.97802734375,197.0869140625ZM347.509765625,208.87646484375L368.62109375,208.87646484375L368.62109375,293.78271484375L347.509765625,293.78271484375L347.509765625,208.87646484375Z" style="fill: rgb(255, 255, 255);"/></g></g><g id="shape-823e08ad-8c6c-8035-8007-4834ca232590"><g class="fills" id="fills-823e08ad-8c6c-8035-8007-4834ca232590"><path d="M418.84765625,185.944580078125L418.84765625,208.87646484375L445.28173828125,208.87646484375L445.28173828125,226.8232421875L418.84765625,226.8232421875L418.84765625,263.20703125C418.84765625,274.349365234375,421.5087890625,278.319580078125,431.4873046875,278.319580078125C435.96826171875,278.319580078125,440.4677734375,277.655517578125,444.79150390625,276.15087890625L448.27490234375,292.260986328125C441.46484375,294.744384765625,433.6396484375,295.91650390625,424.83447265625,295.91650390625C406.208984375,295.91650390625,397.7353515625,288.60546875,397.7353515625,265.515625L397.7353515625,226.8232421875L382.61083984375,226.8232421875L382.61083984375,208.87646484375L397.7353515625,208.87646484375L397.7353515625,185.944580078125L418.84765625,185.944580078125Z" style="fill: rgb(255, 255, 255);"/></g></g><g id="shape-823e08ad-8c6c-8035-8007-4834ca232591"><g class="fills" id="fills-823e08ad-8c6c-8035-8007-4834ca232591"><path d="M528.607421875,216.5205078125C535.083984375,223.167724609375,538.4111328125,234.625,538.4111328125,251.084716796875C538.4111328125,267.544921875,535.083984375,279.00146484375,528.607421875,285.805908203125C522.130859375,292.628173828125,511.8193359375,295.93408203125,498.00732421875,295.93408203125C484.1953125,295.93408203125,473.90185546875,292.610595703125,467.4072265625,285.805908203125C460.9296875,278.98486328125,457.76171875,267.52734375,457.76171875,251.084716796875C457.76171875,234.64208984375,461.08740234375,223.010498046875,467.5654296875,216.5205078125C474.0419921875,209.8740234375,484.1953125,206.55029296875,497.98974609375,206.55029296875C511.7841796875,206.55029296875,522.095703125,209.8740234375,528.58984375,216.5205078125L528.607421875,216.5205078125ZM483.03955078125,273.6845703125C485.8583984375,277.514892578125,490.84765625,279.33447265625,498.00732421875,279.33447265625C505.16796875,279.33447265625,510.138671875,277.497314453125,512.974609375,273.6845703125C515.810546875,269.870849609375,517.1240234375,262.384033203125,517.1240234375,251.41748046875C517.1240234375,240.449951171875,515.79345703125,232.47314453125,512.974609375,228.8173828125C510.31396484375,225.161865234375,505.32470703125,223.342529296875,498.00732421875,223.342529296875C490.6904296875,223.342529296875,485.70068359375,225.161865234375,482.8818359375,228.8173828125C480.2216796875,232.47314453125,478.89111328125,239.9423828125,478.89111328125,251.41748046875C478.89111328125,262.8916015625,480.2216796875,269.853759765625,483.03955078125,273.6845703125Z" style="fill: rgb(255, 255, 255);"/></g></g><g id="shape-823e08ad-8c6c-8035-8007-4834ca232592"><g class="fills" id="fills-823e08ad-8c6c-8035-8007-4834ca232592"><path d="M613.58154296875,226.666259765625C605.0908203125,224.181884765625,596.6181640625,223.010498046875,588.14501953125,223.010498046875C576.8359375,223.010498046875,573.0205078125,225.00439453125,573.0205078125,232.823486328125C573.0205078125,235.971435546875,574.1923828125,238.298583984375,576.52099609375,239.4697265625C578.84912109375,240.62451171875,583.8388671875,241.796875,591.31396484375,242.618896484375C611.9365234375,245.1025390625,619.58544921875,251.084716796875,619.58544921875,267.701904296875C619.58544921875,286.47119140625,607.4541015625,295.95166015625,583.1728515625,295.95166015625C571.8642578125,295.95166015625,562.0615234375,294.780029296875,553.5712890625,292.296142578125L557.0546875,275.345947265625C565.52783203125,278.0048828125,573.8427734375,279.33447265625,582.158203125,279.33447265625C594.7978515625,279.33447265625,599.4541015625,276.343505859375,599.4541015625,268.5244140625C599.4541015625,261.87744140625,595.46240234375,259.551513671875,580.0048828125,258.221435546875C560.7138671875,256.385009765625,552.90625,250.752685546875,552.90625,234.13525390625C552.90625,214.037109375,565.7021484375,206.55029296875,588.9853515625,206.55029296875C598.806640625,206.55029296875,608.2763671875,207.72216796875,617.08203125,210.205810546875L613.5986328125,226.648681640625L613.58154296875,226.666259765625Z" style="fill: rgb(255, 255, 255);"/></g></g><g id="shape-823e08ad-8c6c-8035-8007-4834ca232593"><g class="fills" id="fills-823e08ad-8c6c-8035-8007-4834ca232593"><path d="M647.83984375,197.0869140625C638.52685546875,197.0869140625,635.8662109375,194.7607421875,635.8662109375,185.27978515625C635.8662109375,176.81396484375,638.52685546875,174.81982421875,647.83984375,174.81982421875C657.1533203125,174.81982421875,659.814453125,176.81396484375,659.814453125,185.27978515625C659.814453125,194.7607421875,657.1533203125,197.0869140625,647.83984375,197.0869140625ZM637.37158203125,208.87646484375L658.4833984375,208.87646484375L658.4833984375,293.78271484375L637.37158203125,293.78271484375L637.37158203125,208.87646484375Z" style="fill: rgb(255, 255, 255);"/></g></g><g id="shape-823e08ad-8c6c-8035-8007-4834ca232594"><g class="fills" id="fills-823e08ad-8c6c-8035-8007-4834ca232594"><path d="M736.97998046875,226.666259765625C728.48974609375,224.181884765625,720.0166015625,223.010498046875,711.5439453125,223.010498046875C700.2353515625,223.010498046875,696.4189453125,225.00439453125,696.4189453125,232.823486328125C696.4189453125,235.971435546875,697.591796875,238.298583984375,699.9208984375,239.4697265625C702.248046875,240.62451171875,707.2373046875,241.796875,714.71240234375,242.618896484375C735.3349609375,245.1025390625,742.984375,251.084716796875,742.984375,267.701904296875C742.984375,286.47119140625,730.8525390625,295.95166015625,706.572265625,295.95166015625C695.263671875,295.95166015625,685.4599609375,294.780029296875,676.9697265625,292.296142578125L680.45361328125,275.345947265625C688.9267578125,278.0048828125,697.2421875,279.33447265625,705.556640625,279.33447265625C718.1962890625,279.33447265625,722.8525390625,276.343505859375,722.8525390625,268.5244140625C722.8525390625,261.87744140625,718.8623046875,259.551513671875,703.4033203125,258.221435546875C684.1123046875,256.385009765625,676.3046875,250.752685546875,676.3046875,234.13525390625C676.3046875,214.037109375,689.1015625,206.55029296875,712.3837890625,206.55029296875C722.205078125,206.55029296875,731.67578125,207.72216796875,740.48095703125,210.205810546875L736.99755859375,226.648681640625L736.97998046875,226.666259765625Z" style="fill: rgb(255, 255, 255);"/></g></g></g></g><g id="shape-823e08ad-8c6c-8035-8007-483649ade0cc" style="opacity: 1;"><g class="fills" id="fills-823e08ad-8c6c-8035-8007-483649ade0cc"><path d="M586.58154296875,139.318603515625L600.192626953125,166.577880859375L595.038818359375,169.149169921875L581.427734375,141.88916015625L574.23388671875,145.477783203125L571.822509765625,140.6484375L579.016357421875,137.059814453125L577.167724609375,133.357421875C575.5244140625,130.06591796875,575.159912109375,127.03076171875,576.07421875,124.250732421875C576.988525390625,121.47119140625,579.092041015625,119.259765625,582.384765625,117.617431640625L582.384765625,117.617431640625C585.49853515625,116.06396484375,588.392333984375,115.636962890625,591.066162109375,116.33642578125C593.739990234375,117.035888671875,595.91650390625,118.798583984375,597.595947265625,121.625L597.595947265625,121.625L592.871826171875,123.981689453125C591.674072265625,122.7470703125,590.400146484375,121.986083984375,589.0498046875,121.69921875C587.699462890625,121.412109375,586.2724609375,121.6435546875,584.769287109375,122.39306640625L584.769287109375,122.39306640625C583.087158203125,123.232177734375,582.04443359375,124.411865234375,581.640869140625,125.93115234375C581.237060546875,127.450927734375,581.517578125,129.17626953125,582.482177734375,131.1083984375L582.482177734375,131.1083984375L584.170166015625,134.48876953125L596.410400390625,128.382568359375L598.82177734375,133.21240234375L586.58154296875,139.318603515625ZM637.2080078125,149.1181640625L637.2080078125,149.1181640625C634.308837890625,150.564453125,631.4462890625,151.14306640625,628.6201171875,150.855224609375C625.7939453125,150.566650390625,623.169677734375,149.4521484375,620.7470703125,147.510009765625C618.32470703125,145.568603515625,616.2470703125,142.8623046875,614.514404296875,139.39208984375L614.514404296875,139.39208984375C612.78173828125,135.922607421875,611.871826171875,132.645263671875,611.78466796875,129.560791015625C611.697509765625,126.476318359375,612.3837890625,123.7099609375,613.843505859375,121.261474609375C615.30322265625,118.812744140625,617.482666015625,116.865478515625,620.381591796875,115.41943359375L620.381591796875,115.41943359375C623.31640625,113.955078125,626.1923828125,113.380615234375,629.009765625,113.695556640625C631.826904296875,114.0107421875,634.4423828125,115.1298828125,636.855712890625,117.0537109375C639.269287109375,118.977783203125,641.342529296875,121.6748046875,643.0751953125,125.144775390625L643.0751953125,125.144775390625C644.8076171875,128.614990234375,645.72216796875,131.901123046875,645.818115234375,135.003662109375C645.914306640625,138.105712890625,645.237060546875,140.86767578125,643.7861328125,143.289306640625C642.33544921875,145.711181640625,640.142822265625,147.654052734375,637.2080078125,149.1181640625ZM634.79638671875,144.288818359375L634.79638671875,144.288818359375C637.695556640625,142.84228515625,639.414306640625,140.6669921875,639.953125,137.76171875C640.491943359375,134.856689453125,639.814697265625,131.508056640625,637.92138671875,127.7158203125L637.92138671875,127.7158203125C636.02783203125,123.923828125,633.758056640625,121.36962890625,631.111328125,120.053466796875C628.46484375,118.737548828125,625.692138671875,118.802490234375,622.79296875,120.24853515625L622.79296875,120.24853515625C619.929931640625,121.67724609375,618.219970703125,123.84814453125,617.663330078125,126.76220703125C617.1064453125,129.676513671875,617.77490234375,133.029296875,619.668212890625,136.821533203125L619.668212890625,136.821533203125C621.561767578125,140.61328125,623.840576171875,143.162841796875,626.505126953125,144.470458984375C629.16943359375,145.77734375,631.933349609375,145.717041015625,634.79638671875,144.288818359375ZM647.1923828125,109.082275390625L644.781005859375,104.253173828125L656.913818359375,98.20068359375L658.146240234375,100.668701171875L659.6494140625,99.919189453125C659.8115234375,98.542236328125,660.313232421875,97.28662109375,661.155029296875,96.15185546875C661.99658203125,95.01708984375,663.151123046875,94.08349609375,664.618408203125,93.351806640625L664.618408203125,93.351806640625C667.231201171875,92.048095703125,669.7177734375,91.90283203125,672.078369140625,92.91455078125C674.438720703125,93.9267578125,676.39599609375,95.98876953125,677.9501953125,99.10107421875L677.9501953125,99.10107421875L680.307861328125,103.822998046875L674.939453125,106.5009765625L672.9833984375,102.583984375C671.036376953125,98.684814453125,668.47021484375,97.529541015625,665.284912109375,99.11865234375L665.284912109375,99.11865234375C663.244873046875,100.13623046875,662.156982421875,101.762451171875,662.021240234375,103.997314453125C661.885498046875,106.232666015625,662.6748046875,109.067138671875,664.3896484375,112.501220703125L664.3896484375,112.501220703125L670.793212890625,125.326416015625L681.154541015625,120.157470703125L683.56591796875,124.98681640625L661.876953125,135.806396484375L659.465576171875,130.97705078125L665.639404296875,127.89697265625L654.43994140625,105.466796875L647.1923828125,109.082275390625Z" style="fill: rgb(199, 164, 255); fill-opacity: 1;"/></g></g><g id="shape-823e08ad-8c6c-8035-8007-48364e5db055" style="opacity: 1;"><g class="fills" id="fills-823e08ad-8c6c-8035-8007-48364e5db055"><path d="M62.97998046875,79.543701171875L42.679931640625,79.543701171875L42.679931640625,64.690185546875L65.47998046875,64.690185546875C73.32666015625,64.690185546875,79.186767578125,63.14794921875,83.06005859375,60.0625C86.933349609375,56.977294921875,88.8701171875,51.856201171875,88.8701171875,44.69921875L88.8701171875,44.69921875C88.8701171875,38.3291015625,87.056640625,33.524658203125,83.429931640625,30.285888671875C79.796630859375,27.05419921875,74.20654296875,25.438232421875,66.659912109375,25.438232421875L66.659912109375,25.438232421875L42.679931640625,25.438232421875L42.679931640625,10.73486328125L67.10009765625,10.73486328125C73.373291015625,10.73486328125,79.010009765625,11.471435546875,84.010009765625,12.94384765625C89.0166015625,14.409912109375,93.283203125,16.565673828125,96.81005859375,19.4111328125C100.34326171875,22.249755859375,103.0400390625,25.8515625,104.89990234375,30.21630859375C106.7666015625,34.580810546875,107.699951171875,39.60498046875,107.699951171875,45.289306640625L107.699951171875,45.289306640625C107.699951171875,52.739013671875,106.006591796875,59.009765625,102.6201171875,64.1005859375C99.239990234375,69.1982421875,94.239990234375,73.046630859375,87.6201171875,75.64501953125C81,78.243896484375,72.78662109375,79.543701171875,62.97998046875,79.543701171875L62.97998046875,79.543701171875ZM49.010009765625,107.7705078125L30.469970703125,107.7705078125L30.469970703125,10.73486328125L49.010009765625,10.73486328125L49.010009765625,107.7705078125ZM146.530029296875,107.7705078125L128.2900390625,107.7705078125L128.2900390625,3.388671875L146.530029296875,3.388671875L146.530029296875,107.7705078125ZM197.860107421875,109.6796875L197.860107421875,109.6796875C189.033447265625,109.6796875,182.389892578125,106.66796875,177.929931640625,100.643798828125C173.469970703125,94.613525390625,171.239990234375,85.470703125,171.239990234375,73.216552734375L171.239990234375,73.216552734375L171.239990234375,30.8759765625L189.919921875,30.8759765625L189.919921875,71.157470703125C189.919921875,78.900390625,191.0966796875,84.684326171875,193.449951171875,88.50927734375C195.80322265625,92.334228515625,199.429931640625,94.246826171875,204.330078125,94.246826171875L204.330078125,94.246826171875C207.1767578125,94.246826171875,209.6767578125,93.533935546875,211.830078125,92.107666015625C213.989990234375,90.6884765625,215.853271484375,88.67919921875,217.419921875,86.080810546875C218.993408203125,83.48828125,220.243408203125,80.476318359375,221.169921875,77.044921875C222.103271484375,73.61279296875,222.669921875,69.838134765625,222.8701171875,65.719970703125L222.8701171875,65.719970703125L222.8701171875,30.8759765625L241.39990234375,30.8759765625L241.39990234375,76.164794921875L241.39990234375,107.7705078125L226.10009765625,107.7705078125L226.39990234375,83.511474609375L223.75,83.511474609375C222.4765625,89.68896484375,220.686767578125,94.6865234375,218.3798828125,98.504638671875C216.0732421875,102.32958984375,213.25341796875,105.148681640625,209.919921875,106.960693359375C206.586669921875,108.7734375,202.566650390625,109.6796875,197.860107421875,109.6796875ZM297.14013671875,134.23828125L297.14013671875,134.23828125C288.806640625,134.23828125,281.969970703125,133.598388671875,276.6298828125,132.3193359375C271.283447265625,131.04638671875,267.333251953125,129.1376953125,264.780029296875,126.592041015625C262.2333984375,124.039794921875,260.9599609375,120.901123046875,260.9599609375,117.17626953125L260.9599609375,117.17626953125C260.9599609375,112.671630859375,262.75,108.9736328125,266.330078125,106.081298828125C269.909912109375,103.189208984375,275.22998046875,101.400390625,282.2900390625,100.713623046875L282.2900390625,100.713623046875L282.2900390625,97.775146484375C276.99658203125,97.868408203125,272.9765625,97.3056640625,270.22998046875,96.0859375C267.4833984375,94.85986328125,266.110107421875,92.8740234375,266.110107421875,90.128662109375L266.110107421875,90.128662109375C266.110107421875,87.4833984375,267.45654296875,85.130859375,270.14990234375,83.07177734375C272.85009765625,81.0126953125,277.336669921875,79.296630859375,283.60986328125,77.92431640625L283.60986328125,77.92431640625L283.60986328125,74.98583984375C277.6298828125,74.6923828125,272.973388671875,72.806640625,269.639892578125,69.328125C266.306640625,65.843017578125,264.639892578125,61.308349609375,264.639892578125,55.724609375L264.639892578125,55.724609375C264.639892578125,50.726806640625,266.013427734375,46.315185546875,268.760009765625,42.490478515625C271.5,38.67236328125,275.54345703125,35.660400390625,280.89013671875,33.45458984375C286.236572265625,31.2490234375,292.7333984375,30.14599609375,300.3798828125,30.14599609375L300.3798828125,30.14599609375L338.47998046875,30.14599609375L338.47998046875,44.849609375L314.35009765625,41.321044921875L314.35009765625,44.549560546875C320.429931640625,45.529052734375,324.916748046875,47.2451171875,327.81005859375,49.697021484375C330.703369140625,52.1494140625,332.14990234375,55.48095703125,332.14990234375,59.6923828125L332.14990234375,59.6923828125C332.14990234375,63.710693359375,330.876708984375,67.265625,328.330078125,70.35791015625C325.776611328125,73.44287109375,322.0732421875,75.841796875,317.219970703125,77.554443359375C312.36669921875,79.273681640625,306.510009765625,80.13330078125,299.64990234375,80.13330078125L299.64990234375,80.13330078125C298.3701171875,80.13330078125,296.99658203125,80.08349609375,295.530029296875,79.9833984375C294.056640625,79.88330078125,291.75,79.636962890625,288.60986328125,79.24365234375L288.60986328125,79.24365234375C286.550048828125,80.716552734375,284.88330078125,82.015625,283.60986328125,83.1416015625C282.336669921875,84.26806640625,281.699951171875,85.32080078125,281.699951171875,86.30029296875L281.699951171875,86.30029296875C281.699951171875,87.086669921875,282.18994140625,87.75,283.169921875,88.289794921875C284.14990234375,88.829345703125,285.4267578125,89.195556640625,287,89.388671875C288.566650390625,89.5888671875,290.086669921875,89.68896484375,291.56005859375,89.68896484375L291.56005859375,89.68896484375L312,89.68896484375C313.9599609375,89.68896484375,316.486572265625,89.83544921875,319.580078125,90.128662109375C322.666748046875,90.422119140625,325.75341796875,91.204833984375,328.840087890625,92.477783203125C331.933349609375,93.75048828125,334.533203125,95.75927734375,336.64013671875,98.504638671875C338.74658203125,101.25,339.800048828125,105.121826171875,339.800048828125,110.119384765625L339.800048828125,110.119384765625C339.800048828125,115.710205078125,338.20654296875,120.294921875,335.02001953125,123.873046875C331.833251953125,127.451416015625,327.07666015625,130.07373046875,320.75,131.739501953125C314.429931640625,133.40576171875,306.56005859375,134.23828125,297.14013671875,134.23828125ZM298.760009765625,119.2353515625L298.760009765625,119.2353515625C304.840087890625,119.2353515625,309.693359375,118.892333984375,313.320068359375,118.20556640625C316.953369140625,117.51953125,319.55322265625,116.41650390625,321.1201171875,114.897216796875C322.686767578125,113.377685546875,323.469970703125,111.442138671875,323.469970703125,109.090087890625L323.469970703125,109.090087890625C323.469970703125,106.937255859375,322.97998046875,105.248291015625,322,104.022216796875C321.02001953125,102.796142578125,319.77001953125,101.939697265625,318.25,101.45361328125C316.72998046875,100.960205078125,315.186767578125,100.663818359375,313.6201171875,100.563720703125C312.05322265625,100.470703125,310.72998046875,100.423828125,309.64990234375,100.423828125L309.64990234375,100.423828125L291.56005859375,100.423828125C286.853271484375,101.1103515625,283.54345703125,102.43310546875,281.6298828125,104.39208984375C279.716796875,106.351318359375,278.760009765625,108.507080078125,278.760009765625,110.85888671875L278.760009765625,110.85888671875C278.760009765625,113.21142578125,279.54345703125,115.00048828125,281.10986328125,116.2265625C282.683349609375,117.45263671875,284.96337890625,118.25927734375,287.949951171875,118.645263671875C290.943359375,119.038818359375,294.546630859375,119.2353515625,298.760009765625,119.2353515625ZM299.199951171875,69.988037109375L299.199951171875,69.988037109375C304.300048828125,69.988037109375,308.17333984375,68.784912109375,310.820068359375,66.37939453125C313.473388671875,63.98046875,314.800048828125,60.822265625,314.800048828125,56.903564453125L314.800048828125,56.903564453125C314.800048828125,52.685791015625,313.449951171875,49.23095703125,310.75,46.538818359375C308.056640625,43.83984375,304.159912109375,42.490478515625,299.06005859375,42.490478515625L299.06005859375,42.490478515625C293.9599609375,42.490478515625,290.013427734375,43.81298828125,287.219970703125,46.458740234375C284.419921875,49.10400390625,283.02001953125,52.48583984375,283.02001953125,56.60400390625L283.02001953125,56.60400390625C283.02001953125,59.249267578125,283.63330078125,61.578369140625,284.85986328125,63.591064453125C286.086669921875,65.596435546875,287.9033203125,67.166015625,290.31005859375,68.298828125C292.7099609375,69.4248046875,295.67333984375,69.988037109375,299.199951171875,69.988037109375ZM378.340087890625,107.7705078125L359.800048828125,107.7705078125L359.800048828125,30.8759765625L378.340087890625,30.8759765625L378.340087890625,107.7705078125ZM369.070068359375,18.821533203125L369.070068359375,18.821533203125C365.34326171875,18.821533203125,362.4765625,18.011962890625,360.469970703125,16.392578125C358.45654296875,14.780029296875,357.449951171875,12.454345703125,357.449951171875,9.415771484375L357.449951171875,9.415771484375C357.449951171875,6.376953125,358.45654296875,4.048095703125,360.469970703125,2.4287109375C362.4765625,0.809814453125,365.34326171875,0,369.070068359375,0L369.070068359375,0C372.989990234375,0,375.933349609375,0.786376953125,377.89990234375,2.35888671875C379.85986328125,3.925048828125,380.840087890625,6.277099609375,380.840087890625,9.415771484375L380.840087890625,9.415771484375C380.840087890625,12.454345703125,379.833251953125,14.780029296875,377.820068359375,16.392578125C375.813232421875,18.011962890625,372.896728515625,18.821533203125,369.070068359375,18.821533203125ZM422.760009765625,107.7705078125L404.219970703125,107.7705078125L404.219970703125,60.8720703125L404.219970703125,30.8759765625L419.669921875,30.8759765625L419.22998046875,54.40478515625L421.8798828125,54.40478515625C423.24658203125,48.620849609375,425.083251953125,43.86669921875,427.39013671875,40.141357421875C429.69677734375,36.41650390625,432.663330078125,33.621337890625,436.2900390625,31.755615234375C439.916748046875,29.89599609375,444.13330078125,28.966796875,448.93994140625,28.966796875L448.93994140625,28.966796875C457.666748046875,28.966796875,464.31005859375,32.05517578125,468.8701171875,38.232666015625C473.429931640625,44.403076171875,475.7099609375,53.958740234375,475.7099609375,66.899169921875L475.7099609375,66.899169921875L475.7099609375,107.7705078125L457.030029296875,107.7705078125L457.030029296875,68.808349609375C457.030029296875,60.478759765625,455.780029296875,54.37841796875,453.280029296875,50.5068359375C450.780029296875,46.635498046875,447.07666015625,44.69921875,442.169921875,44.69921875L442.169921875,44.69921875C438.056640625,44.69921875,434.57666015625,45.9990234375,431.72998046875,48.597900390625C428.88330078125,51.18994140625,426.699951171875,54.6181640625,425.179931640625,58.8828125C423.666748046875,63.14794921875,422.85986328125,67.828857421875,422.760009765625,72.926513671875L422.760009765625,72.926513671875L422.760009765625,107.7705078125ZM530.1298828125,109.6796875L530.1298828125,109.6796875C524.936767578125,109.6796875,520.256591796875,109.166748046875,516.090087890625,108.140380859375C511.916748046875,107.107666015625,508.35986328125,105.63818359375,505.419921875,103.732177734375C502.47998046875,101.820068359375,500.126708984375,99.514404296875,498.35986328125,96.8154296875C496.59326171875,94.12353515625,495.5166015625,91.111572265625,495.1298828125,87.779541015625L495.1298828125,87.779541015625L509.68994140625,82.33251953125C509.88330078125,84.884521484375,510.86328125,87.163330078125,512.6298828125,89.169189453125C514.396728515625,91.181396484375,516.8466796875,92.77392578125,519.97998046875,93.94677734375C523.1201171875,95.12646484375,526.896728515625,95.716064453125,531.31005859375,95.716064453125L531.31005859375,95.716064453125C536.2099609375,95.716064453125,540.010009765625,94.95654296875,542.7099609375,93.437255859375C545.4033203125,91.91796875,546.75,89.7353515625,546.75,86.889892578125L546.75,86.889892578125C546.75,84.831298828125,546.0166015625,83.19189453125,544.550048828125,81.97216796875C543.07666015625,80.746337890625,540.943359375,79.717041015625,538.14990234375,78.8837890625C535.356689453125,78.05078125,531.99658203125,77.240966796875,528.070068359375,76.454833984375L528.070068359375,76.454833984375C524.443359375,75.66845703125,520.79345703125,74.76220703125,517.1201171875,73.736328125C513.43994140625,72.70361328125,510.056640625,71.33056640625,506.969970703125,69.6181640625C503.876708984375,67.905517578125,501.373291015625,65.649658203125,499.4599609375,62.85107421875C497.55322265625,60.05908203125,496.60009765625,56.50732421875,496.60009765625,52.19580078125L496.60009765625,52.19580078125C496.60009765625,47.491455078125,497.85009765625,43.423583984375,500.35009765625,39.991455078125C502.85009765625,36.56005859375,506.4765625,33.864501953125,511.22998046875,31.9052734375C515.989990234375,29.9462890625,521.75,28.966796875,528.510009765625,28.966796875L528.510009765625,28.966796875C534.89013671875,28.966796875,540.40673828125,29.849609375,545.06005859375,31.615478515625C549.719970703125,33.375,553.52001953125,35.896728515625,556.4599609375,39.181884765625C559.39990234375,42.467041015625,561.26318359375,46.365478515625,562.050048828125,50.876708984375L562.050048828125,50.876708984375L546.75,55.724609375C546.45654296875,52.979248046875,545.526611328125,50.650146484375,543.9599609375,48.737548828125C542.393310546875,46.8251953125,540.283203125,45.379150390625,537.6298828125,44.399658203125C534.9833984375,43.420166015625,531.896728515625,42.93017578125,528.3701171875,42.93017578125L528.3701171875,42.93017578125C523.856689453125,42.93017578125,520.32666015625,43.71630859375,517.780029296875,45.289306640625C515.2265625,46.85498046875,513.949951171875,48.9609375,513.949951171875,51.606201171875L513.949951171875,51.606201171875C513.949951171875,53.765380859375,514.760009765625,55.48095703125,516.3798828125,56.75390625C518,58.026611328125,520.256591796875,59.055908203125,523.14990234375,59.8427734375C526.04345703125,60.62890625,529.35009765625,61.411865234375,533.070068359375,62.19140625L533.070068359375,62.19140625C536.99658203125,62.9775390625,540.796630859375,63.8837890625,544.469970703125,64.91015625C548.14990234375,65.94287109375,551.4599609375,67.29248046875,554.39990234375,68.958251953125C557.3466796875,70.62451171875,559.699951171875,72.80322265625,561.4599609375,75.495361328125C563.2265625,78.194091796875,564.10986328125,81.649169921875,564.10986328125,85.860595703125L564.10986328125,85.860595703125C564.10986328125,90.958251953125,562.73681640625,95.296142578125,559.989990234375,98.874755859375C557.243408203125,102.453125,553.3466796875,105.148681640625,548.300048828125,106.960693359375C543.24658203125,108.7734375,537.18994140625,109.6796875,530.1298828125,109.6796875Z" style="fill: rgb(4, 209, 184); fill-opacity: 1;"/></g></g></g></svg>